# Project-authored low-poly rifle; meters, +Y up, +Z muzzle, origin at firing grip.
o BoltCarrier
v 0.035500 0.103500 0.015000
v 0.050500 0.103500 0.015000
v 0.050500 0.136500 0.015000
v 0.035500 0.136500 0.015000
v 0.035500 0.103500 0.145000
v 0.050500 0.103500 0.145000
v 0.050500 0.136500 0.145000
v 0.035500 0.136500 0.145000
f 1 3 2
f 1 4 3
f 5 6 7
f 5 7 8
f 1 5 8
f 1 8 4
f 2 3 7
f 2 7 6
f 4 8 7
f 4 7 3
f 1 2 6
f 1 6 5
o ChargingHandle
v 0.043000 0.111000 0.055000
v 0.087000 0.111000 0.055000
v 0.087000 0.129000 0.055000
v 0.043000 0.129000 0.055000
v 0.043000 0.111000 0.075000
v 0.087000 0.111000 0.075000
v 0.087000 0.129000 0.075000
v 0.043000 0.129000 0.075000
f 9 11 10
f 9 12 11
f 13 14 15
f 13 15 16
f 9 13 16
f 9 16 12
f 10 11 15
f 10 15 14
f 12 16 15
f 12 15 11
f 9 10 14
f 9 14 13
