# Project-authored low-poly rifle; meters, +Y up, +Z muzzle, origin at firing grip.
o MagazineUpper
v -0.027500 -0.098438 0.150296
v 0.027500 -0.098438 0.150296
v 0.027500 0.041030 0.136585
v -0.027500 0.041030 0.136585
v -0.027500 -0.091030 0.245437
v 0.027500 -0.091030 0.245437
v 0.027500 0.048438 0.231727
v -0.027500 0.048438 0.231727
f 1 3 2
f 1 4 3
f 5 6 7
f 5 7 8
f 1 5 8
f 1 8 4
f 2 3 7
f 2 7 6
f 4 8 7
f 4 7 3
f 1 2 6
f 1 6 5
o MagazineLower
v -0.027500 -0.213138 0.183355
v 0.027500 -0.213138 0.183355
v 0.027500 -0.087568 0.145551
v -0.027500 -0.087568 0.145551
v -0.027500 -0.192432 0.270180
v 0.027500 -0.192432 0.270180
v 0.027500 -0.066862 0.232375
v -0.027500 -0.066862 0.232375
f 9 11 10
f 9 12 11
f 13 14 15
f 13 15 16
f 9 13 16
f 9 16 12
f 10 11 15
f 10 15 14
f 12 16 15
f 12 15 11
f 9 10 14
f 9 14 13
o MagazineFloorplate
v -0.032000 -0.227823 0.184039
v 0.032000 -0.227823 0.184039
v 0.032000 -0.210436 0.178804
v -0.032000 -0.210436 0.178804
v -0.032000 -0.205564 0.277375
v 0.032000 -0.205564 0.277375
v 0.032000 -0.188177 0.272140
v -0.032000 -0.188177 0.272140
f 17 19 18
f 17 20 19
f 21 22 23
f 21 23 24
f 17 21 24
f 17 24 20
f 18 19 23
f 18 23 22
f 20 24 23
f 20 23 19
f 17 18 22
f 17 22 21
