# Project-authored low-poly rifle; meters, +Y up, +Z muzzle, origin at firing grip.
o FlashCore
v 0.038000 0.110000 0.741573
v 0.032909 0.129000 0.741573
v 0.019000 0.142909 0.741573
v 0.000000 0.148000 0.741573
v -0.019000 0.142909 0.741573
v -0.032909 0.129000 0.741573
v -0.038000 0.110000 0.741573
v -0.032909 0.091000 0.741573
v -0.019000 0.077091 0.741573
v -0.000000 0.072000 0.741573
v 0.019000 0.077091 0.741573
v 0.032909 0.091000 0.741573
v 0.038000 0.110000 0.842697
v 0.032909 0.129000 0.842697
v 0.019000 0.142909 0.842697
v 0.000000 0.148000 0.842697
v -0.019000 0.142909 0.842697
v -0.032909 0.129000 0.842697
v -0.038000 0.110000 0.842697
v -0.032909 0.091000 0.842697
v -0.019000 0.077091 0.842697
v -0.000000 0.072000 0.842697
v 0.019000 0.077091 0.842697
v 0.032909 0.091000 0.842697
f 1 2 14
f 1 14 13
f 2 3 15
f 2 15 14
f 3 4 16
f 3 16 15
f 4 5 17
f 4 17 16
f 5 6 18
f 5 18 17
f 6 7 19
f 6 19 18
f 7 8 20
f 7 20 19
f 8 9 21
f 8 21 20
f 9 10 22
f 9 22 21
f 10 11 23
f 10 23 22
f 11 12 24
f 11 24 23
f 12 1 13
f 12 13 24
f 1 3 2
f 13 14 15
f 1 4 3
f 13 15 16
f 1 5 4
f 13 16 17
f 1 6 5
f 13 17 18
f 1 7 6
f 13 18 19
f 1 8 7
f 13 19 20
f 1 9 8
f 13 20 21
f 1 10 9
f 13 21 22
f 1 11 10
f 13 22 23
f 1 12 11
f 13 23 24
o FlashTip
v 0.015000 0.110000 0.825843
v 0.012990 0.117500 0.825843
v 0.007500 0.122990 0.825843
v 0.000000 0.125000 0.825843
v -0.007500 0.122990 0.825843
v -0.012990 0.117500 0.825843
v -0.015000 0.110000 0.825843
v -0.012990 0.102500 0.825843
v -0.007500 0.097010 0.825843
v -0.000000 0.095000 0.825843
v 0.007500 0.097010 0.825843
v 0.012990 0.102500 0.825843
v 0.015000 0.110000 0.926966
v 0.012990 0.117500 0.926966
v 0.007500 0.122990 0.926966
v 0.000000 0.125000 0.926966
v -0.007500 0.122990 0.926966
v -0.012990 0.117500 0.926966
v -0.015000 0.110000 0.926966
v -0.012990 0.102500 0.926966
v -0.007500 0.097010 0.926966
v -0.000000 0.095000 0.926966
v 0.007500 0.097010 0.926966
v 0.012990 0.102500 0.926966
f 25 26 38
f 25 38 37
f 26 27 39
f 26 39 38
f 27 28 40
f 27 40 39
f 28 29 41
f 28 41 40
f 29 30 42
f 29 42 41
f 30 31 43
f 30 43 42
f 31 32 44
f 31 44 43
f 32 33 45
f 32 45 44
f 33 34 46
f 33 46 45
f 34 35 47
f 34 47 46
f 35 36 48
f 35 48 47
f 36 25 37
f 36 37 48
f 25 27 26
f 37 38 39
f 25 28 27
f 37 39 40
f 25 29 28
f 37 40 41
f 25 30 29
f 37 41 42
f 25 31 30
f 37 42 43
f 25 32 31
f 37 43 44
f 25 33 32
f 37 44 45
f 25 34 33
f 37 45 46
f 25 35 34
f 37 46 47
f 25 36 35
f 37 47 48
