# Project-authored low-poly rifle; meters, +Y up, +Z muzzle, origin at firing grip.
o Receiver
v -0.037500 0.042500 -0.070000
v 0.037500 0.042500 -0.070000
v 0.037500 0.147500 -0.070000
v -0.037500 0.147500 -0.070000
v -0.037500 0.042500 0.250000
v 0.037500 0.042500 0.250000
v 0.037500 0.147500 0.250000
v -0.037500 0.147500 0.250000
f 1 3 2
f 1 4 3
f 5 6 7
f 5 7 8
f 1 5 8
f 1 8 4
f 2 3 7
f 2 7 6
f 4 8 7
f 4 7 3
f 1 2 6
f 1 6 5
o DustCover
v -0.034000 0.140500 -0.080000
v 0.034000 0.140500 -0.080000
v 0.034000 0.175500 -0.080000
v -0.034000 0.175500 -0.080000
v -0.034000 0.140500 0.210000
v 0.034000 0.140500 0.210000
v 0.034000 0.175500 0.210000
v -0.034000 0.175500 0.210000
f 9 11 10
f 9 12 11
f 13 14 15
f 13 15 16
f 9 13 16
f 9 16 12
f 10 11 15
f 10 15 14
f 12 16 15
f 12 15 11
f 9 10 14
f 9 14 13
o StockTube
v -0.019000 0.081000 -0.250000
v 0.019000 0.081000 -0.250000
v 0.019000 0.119000 -0.250000
v -0.019000 0.119000 -0.250000
v -0.019000 0.081000 -0.070000
v 0.019000 0.081000 -0.070000
v 0.019000 0.119000 -0.070000
v -0.019000 0.119000 -0.070000
f 17 19 18
f 17 20 19
f 21 22 23
f 21 23 24
f 17 21 24
f 17 24 20
f 18 19 23
f 18 23 22
f 20 24 23
f 20 23 19
f 17 18 22
f 17 22 21
o Stock
v -0.030000 0.015000 -0.380000
v 0.030000 0.015000 -0.380000
v 0.030000 0.135000 -0.380000
v -0.030000 0.135000 -0.380000
v -0.030000 0.015000 -0.190000
v 0.030000 0.015000 -0.190000
v 0.030000 0.135000 -0.190000
v -0.030000 0.135000 -0.190000
f 25 27 26
f 25 28 27
f 29 30 31
f 29 31 32
f 25 29 32
f 25 32 28
f 26 27 31
f 26 31 30
f 28 32 31
f 28 31 27
f 25 26 30
f 25 30 29
o ButtPad
v -0.035000 0.000500 -0.402500
v 0.035000 0.000500 -0.402500
v 0.035000 0.145500 -0.402500
v -0.035000 0.145500 -0.402500
v -0.035000 0.000500 -0.377500
v 0.035000 0.000500 -0.377500
v 0.035000 0.145500 -0.377500
v -0.035000 0.145500 -0.377500
f 33 35 34
f 33 36 35
f 37 38 39
f 37 39 40
f 33 37 40
f 33 40 36
f 34 35 39
f 34 39 38
f 36 40 39
f 36 39 35
f 33 34 38
f 33 38 37
o PistolGrip
v -0.026000 -0.101522 -0.030908
v 0.026000 -0.101522 -0.030908
v 0.026000 0.033054 -0.069497
v -0.026000 0.033054 -0.069497
v -0.026000 -0.083054 0.033497
v 0.026000 -0.083054 0.033497
v 0.026000 0.051522 -0.005092
v -0.026000 0.051522 -0.005092
f 41 43 42
f 41 44 43
f 45 46 47
f 45 47 48
f 41 45 48
f 41 48 44
f 42 43 47
f 42 47 46
f 44 48 47
f 44 47 43
f 41 42 46
f 41 46 45
o TriggerGuardBottom
v -0.007500 -0.031000 0.035500
v 0.007500 -0.031000 0.035500
v 0.007500 -0.019000 0.035500
v -0.007500 -0.019000 0.035500
v -0.007500 -0.031000 0.110500
v 0.007500 -0.031000 0.110500
v 0.007500 -0.019000 0.110500
v -0.007500 -0.019000 0.110500
f 49 51 50
f 49 52 51
f 53 54 55
f 53 55 56
f 49 53 56
f 49 56 52
f 50 51 55
f 50 55 54
f 52 56 55
f 52 55 51
f 49 50 54
f 49 54 53
o TriggerGuardFront
v -0.007500 -0.025000 0.101000
v 0.007500 -0.025000 0.101000
v 0.007500 0.035000 0.101000
v -0.007500 0.035000 0.101000
v -0.007500 -0.025000 0.113000
v 0.007500 -0.025000 0.113000
v 0.007500 0.035000 0.113000
v -0.007500 0.035000 0.113000
f 57 59 58
f 57 60 59
f 61 62 63
f 61 63 64
f 57 61 64
f 57 64 60
f 58 59 63
f 58 63 62
f 60 64 63
f 60 63 59
f 57 58 62
f 57 62 61
o Trigger
v -0.006000 -0.014234 0.057017
v 0.006000 -0.014234 0.057017
v 0.006000 0.031739 0.047245
v -0.006000 0.031739 0.047245
v -0.006000 -0.011739 0.068755
v 0.006000 -0.011739 0.068755
v 0.006000 0.034234 0.058983
v -0.006000 0.034234 0.058983
f 65 67 66
f 65 68 67
f 69 70 71
f 69 71 72
f 65 69 72
f 65 72 68
f 66 67 71
f 66 71 70
f 68 72 71
f 68 71 67
f 65 66 70
f 65 70 69
o Handguard
v -0.036000 0.062500 0.200000
v 0.036000 0.062500 0.200000
v 0.036000 0.137500 0.200000
v -0.036000 0.137500 0.200000
v -0.036000 0.062500 0.420000
v 0.036000 0.062500 0.420000
v 0.036000 0.137500 0.420000
v -0.036000 0.137500 0.420000
f 73 75 74
f 73 76 75
f 77 78 79
f 77 79 80
f 73 77 80
f 73 80 76
f 74 75 79
f 74 79 78
f 76 80 79
f 76 79 75
f 73 74 78
f 73 78 77
o TopRail
v -0.021000 0.173000 -0.100000
v 0.021000 0.173000 -0.100000
v 0.021000 0.185000 -0.100000
v -0.021000 0.185000 -0.100000
v -0.021000 0.173000 0.320000
v 0.021000 0.173000 0.320000
v 0.021000 0.185000 0.320000
v -0.021000 0.185000 0.320000
f 81 83 82
f 81 84 83
f 85 86 87
f 85 87 88
f 81 85 88
f 81 88 84
f 82 83 87
f 82 87 86
f 84 88 87
f 84 87 83
f 81 82 86
f 81 86 85
o RailTooth0
v -0.026500 0.185000 -0.085500
v 0.026500 0.185000 -0.085500
v 0.026500 0.197000 -0.085500
v -0.026500 0.197000 -0.085500
v -0.026500 0.185000 -0.074500
v 0.026500 0.185000 -0.074500
v 0.026500 0.197000 -0.074500
v -0.026500 0.197000 -0.074500
f 89 91 90
f 89 92 91
f 93 94 95
f 93 95 96
f 89 93 96
f 89 96 92
f 90 91 95
f 90 95 94
f 92 96 95
f 92 95 91
f 89 90 94
f 89 94 93
o RailTooth1
v -0.026500 0.185000 -0.058500
v 0.026500 0.185000 -0.058500
v 0.026500 0.197000 -0.058500
v -0.026500 0.197000 -0.058500
v -0.026500 0.185000 -0.047500
v 0.026500 0.185000 -0.047500
v 0.026500 0.197000 -0.047500
v -0.026500 0.197000 -0.047500
f 97 99 98
f 97 100 99
f 101 102 103
f 101 103 104
f 97 101 104
f 97 104 100
f 98 99 103
f 98 103 102
f 100 104 103
f 100 103 99
f 97 98 102
f 97 102 101
o RailTooth2
v -0.026500 0.185000 -0.031500
v 0.026500 0.185000 -0.031500
v 0.026500 0.197000 -0.031500
v -0.026500 0.197000 -0.031500
v -0.026500 0.185000 -0.020500
v 0.026500 0.185000 -0.020500
v 0.026500 0.197000 -0.020500
v -0.026500 0.197000 -0.020500
f 105 107 106
f 105 108 107
f 109 110 111
f 109 111 112
f 105 109 112
f 105 112 108
f 106 107 111
f 106 111 110
f 108 112 111
f 108 111 107
f 105 106 110
f 105 110 109
o RailTooth3
v -0.026500 0.185000 -0.004500
v 0.026500 0.185000 -0.004500
v 0.026500 0.197000 -0.004500
v -0.026500 0.197000 -0.004500
v -0.026500 0.185000 0.006500
v 0.026500 0.185000 0.006500
v 0.026500 0.197000 0.006500
v -0.026500 0.197000 0.006500
f 113 115 114
f 113 116 115
f 117 118 119
f 117 119 120
f 113 117 120
f 113 120 116
f 114 115 119
f 114 119 118
f 116 120 119
f 116 119 115
f 113 114 118
f 113 118 117
o RailTooth4
v -0.026500 0.185000 0.022500
v 0.026500 0.185000 0.022500
v 0.026500 0.197000 0.022500
v -0.026500 0.197000 0.022500
v -0.026500 0.185000 0.033500
v 0.026500 0.185000 0.033500
v 0.026500 0.197000 0.033500
v -0.026500 0.197000 0.033500
f 121 123 122
f 121 124 123
f 125 126 127
f 125 127 128
f 121 125 128
f 121 128 124
f 122 123 127
f 122 127 126
f 124 128 127
f 124 127 123
f 121 122 126
f 121 126 125
o RailTooth5
v -0.026500 0.185000 0.049500
v 0.026500 0.185000 0.049500
v 0.026500 0.197000 0.049500
v -0.026500 0.197000 0.049500
v -0.026500 0.185000 0.060500
v 0.026500 0.185000 0.060500
v 0.026500 0.197000 0.060500
v -0.026500 0.197000 0.060500
f 129 131 130
f 129 132 131
f 133 134 135
f 133 135 136
f 129 133 136
f 129 136 132
f 130 131 135
f 130 135 134
f 132 136 135
f 132 135 131
f 129 130 134
f 129 134 133
o RailTooth6
v -0.026500 0.185000 0.076500
v 0.026500 0.185000 0.076500
v 0.026500 0.197000 0.076500
v -0.026500 0.197000 0.076500
v -0.026500 0.185000 0.087500
v 0.026500 0.185000 0.087500
v 0.026500 0.197000 0.087500
v -0.026500 0.197000 0.087500
f 137 139 138
f 137 140 139
f 141 142 143
f 141 143 144
f 137 141 144
f 137 144 140
f 138 139 143
f 138 143 142
f 140 144 143
f 140 143 139
f 137 138 142
f 137 142 141
o RailTooth7
v -0.026500 0.185000 0.103500
v 0.026500 0.185000 0.103500
v 0.026500 0.197000 0.103500
v -0.026500 0.197000 0.103500
v -0.026500 0.185000 0.114500
v 0.026500 0.185000 0.114500
v 0.026500 0.197000 0.114500
v -0.026500 0.197000 0.114500
f 145 147 146
f 145 148 147
f 149 150 151
f 149 151 152
f 145 149 152
f 145 152 148
f 146 147 151
f 146 151 150
f 148 152 151
f 148 151 147
f 145 146 150
f 145 150 149
o RailTooth8
v -0.026500 0.185000 0.130500
v 0.026500 0.185000 0.130500
v 0.026500 0.197000 0.130500
v -0.026500 0.197000 0.130500
v -0.026500 0.185000 0.141500
v 0.026500 0.185000 0.141500
v 0.026500 0.197000 0.141500
v -0.026500 0.197000 0.141500
f 153 155 154
f 153 156 155
f 157 158 159
f 157 159 160
f 153 157 160
f 153 160 156
f 154 155 159
f 154 159 158
f 156 160 159
f 156 159 155
f 153 154 158
f 153 158 157
o RailTooth9
v -0.026500 0.185000 0.157500
v 0.026500 0.185000 0.157500
v 0.026500 0.197000 0.157500
v -0.026500 0.197000 0.157500
v -0.026500 0.185000 0.168500
v 0.026500 0.185000 0.168500
v 0.026500 0.197000 0.168500
v -0.026500 0.197000 0.168500
f 161 163 162
f 161 164 163
f 165 166 167
f 165 167 168
f 161 165 168
f 161 168 164
f 162 163 167
f 162 167 166
f 164 168 167
f 164 167 163
f 161 162 166
f 161 166 165
o RailTooth10
v -0.026500 0.185000 0.184500
v 0.026500 0.185000 0.184500
v 0.026500 0.197000 0.184500
v -0.026500 0.197000 0.184500
v -0.026500 0.185000 0.195500
v 0.026500 0.185000 0.195500
v 0.026500 0.197000 0.195500
v -0.026500 0.197000 0.195500
f 169 171 170
f 169 172 171
f 173 174 175
f 173 175 176
f 169 173 176
f 169 176 172
f 170 171 175
f 170 175 174
f 172 176 175
f 172 175 171
f 169 170 174
f 169 174 173
o RailTooth11
v -0.026500 0.185000 0.211500
v 0.026500 0.185000 0.211500
v 0.026500 0.197000 0.211500
v -0.026500 0.197000 0.211500
v -0.026500 0.185000 0.222500
v 0.026500 0.185000 0.222500
v 0.026500 0.197000 0.222500
v -0.026500 0.197000 0.222500
f 177 179 178
f 177 180 179
f 181 182 183
f 181 183 184
f 177 181 184
f 177 184 180
f 178 179 183
f 178 183 182
f 180 184 183
f 180 183 179
f 177 178 182
f 177 182 181
o RailTooth12
v -0.026500 0.185000 0.238500
v 0.026500 0.185000 0.238500
v 0.026500 0.197000 0.238500
v -0.026500 0.197000 0.238500
v -0.026500 0.185000 0.249500
v 0.026500 0.185000 0.249500
v 0.026500 0.197000 0.249500
v -0.026500 0.197000 0.249500
f 185 187 186
f 185 188 187
f 189 190 191
f 189 191 192
f 185 189 192
f 185 192 188
f 186 187 191
f 186 191 190
f 188 192 191
f 188 191 187
f 185 186 190
f 185 190 189
o RailTooth13
v -0.026500 0.185000 0.265500
v 0.026500 0.185000 0.265500
v 0.026500 0.197000 0.265500
v -0.026500 0.197000 0.265500
v -0.026500 0.185000 0.276500
v 0.026500 0.185000 0.276500
v 0.026500 0.197000 0.276500
v -0.026500 0.197000 0.276500
f 193 195 194
f 193 196 195
f 197 198 199
f 197 199 200
f 193 197 200
f 193 200 196
f 194 195 199
f 194 199 198
f 196 200 199
f 196 199 195
f 193 194 198
f 193 198 197
o RailTooth14
v -0.026500 0.185000 0.292500
v 0.026500 0.185000 0.292500
v 0.026500 0.197000 0.292500
v -0.026500 0.197000 0.292500
v -0.026500 0.185000 0.303500
v 0.026500 0.185000 0.303500
v 0.026500 0.197000 0.303500
v -0.026500 0.197000 0.303500
f 201 203 202
f 201 204 203
f 205 206 207
f 205 207 208
f 201 205 208
f 201 208 204
f 202 203 207
f 202 207 206
f 204 208 207
f 204 207 203
f 201 202 206
f 201 206 205
o Barrel
v 0.016000 0.110000 0.400000
v 0.013856 0.118000 0.400000
v 0.008000 0.123856 0.400000
v 0.000000 0.126000 0.400000
v -0.008000 0.123856 0.400000
v -0.013856 0.118000 0.400000
v -0.016000 0.110000 0.400000
v -0.013856 0.102000 0.400000
v -0.008000 0.096144 0.400000
v -0.000000 0.094000 0.400000
v 0.008000 0.096144 0.400000
v 0.013856 0.102000 0.400000
v 0.016000 0.110000 0.620000
v 0.013856 0.118000 0.620000
v 0.008000 0.123856 0.620000
v 0.000000 0.126000 0.620000
v -0.008000 0.123856 0.620000
v -0.013856 0.118000 0.620000
v -0.016000 0.110000 0.620000
v -0.013856 0.102000 0.620000
v -0.008000 0.096144 0.620000
v -0.000000 0.094000 0.620000
v 0.008000 0.096144 0.620000
v 0.013856 0.102000 0.620000
f 209 210 222
f 209 222 221
f 210 211 223
f 210 223 222
f 211 212 224
f 211 224 223
f 212 213 225
f 212 225 224
f 213 214 226
f 213 226 225
f 214 215 227
f 214 227 226
f 215 216 228
f 215 228 227
f 216 217 229
f 216 229 228
f 217 218 230
f 217 230 229
f 218 219 231
f 218 231 230
f 219 220 232
f 219 232 231
f 220 209 221
f 220 221 232
f 209 211 210
f 221 222 223
f 209 212 211
f 221 223 224
f 209 213 212
f 221 224 225
f 209 214 213
f 221 225 226
f 209 215 214
f 221 226 227
f 209 216 215
f 221 227 228
f 209 217 216
f 221 228 229
f 209 218 217
f 221 229 230
f 209 219 218
f 221 230 231
f 209 220 219
f 221 231 232
o MuzzleBrake
v 0.024000 0.110000 0.612500
v 0.020785 0.122000 0.612500
v 0.012000 0.130785 0.612500
v 0.000000 0.134000 0.612500
v -0.012000 0.130785 0.612500
v -0.020785 0.122000 0.612500
v -0.024000 0.110000 0.612500
v -0.020785 0.098000 0.612500
v -0.012000 0.089215 0.612500
v -0.000000 0.086000 0.612500
v 0.012000 0.089215 0.612500
v 0.020785 0.098000 0.612500
v 0.024000 0.110000 0.667500
v 0.020785 0.122000 0.667500
v 0.012000 0.130785 0.667500
v 0.000000 0.134000 0.667500
v -0.012000 0.130785 0.667500
v -0.020785 0.122000 0.667500
v -0.024000 0.110000 0.667500
v -0.020785 0.098000 0.667500
v -0.012000 0.089215 0.667500
v -0.000000 0.086000 0.667500
v 0.012000 0.089215 0.667500
v 0.020785 0.098000 0.667500
f 233 234 246
f 233 246 245
f 234 235 247
f 234 247 246
f 235 236 248
f 235 248 247
f 236 237 249
f 236 249 248
f 237 238 250
f 237 250 249
f 238 239 251
f 238 251 250
f 239 240 252
f 239 252 251
f 240 241 253
f 240 253 252
f 241 242 254
f 241 254 253
f 242 243 255
f 242 255 254
f 243 244 256
f 243 256 255
f 244 233 245
f 244 245 256
f 233 235 234
f 245 246 247
f 233 236 235
f 245 247 248
f 233 237 236
f 245 248 249
f 233 238 237
f 245 249 250
f 233 239 238
f 245 250 251
f 233 240 239
f 245 251 252
f 233 241 240
f 245 252 253
f 233 242 241
f 245 253 254
f 233 243 242
f 245 254 255
f 233 244 243
f 245 255 256
o GasTube
v 0.012000 0.153000 0.325000
v 0.010392 0.159000 0.325000
v 0.006000 0.163392 0.325000
v 0.000000 0.165000 0.325000
v -0.006000 0.163392 0.325000
v -0.010392 0.159000 0.325000
v -0.012000 0.153000 0.325000
v -0.010392 0.147000 0.325000
v -0.006000 0.142608 0.325000
v -0.000000 0.141000 0.325000
v 0.006000 0.142608 0.325000
v 0.010392 0.147000 0.325000
v 0.012000 0.153000 0.515000
v 0.010392 0.159000 0.515000
v 0.006000 0.163392 0.515000
v 0.000000 0.165000 0.515000
v -0.006000 0.163392 0.515000
v -0.010392 0.159000 0.515000
v -0.012000 0.153000 0.515000
v -0.010392 0.147000 0.515000
v -0.006000 0.142608 0.515000
v -0.000000 0.141000 0.515000
v 0.006000 0.142608 0.515000
v 0.010392 0.147000 0.515000
f 257 258 270
f 257 270 269
f 258 259 271
f 258 271 270
f 259 260 272
f 259 272 271
f 260 261 273
f 260 273 272
f 261 262 274
f 261 274 273
f 262 263 275
f 262 275 274
f 263 264 276
f 263 276 275
f 264 265 277
f 264 277 276
f 265 266 278
f 265 278 277
f 266 267 279
f 266 279 278
f 267 268 280
f 267 280 279
f 268 257 269
f 268 269 280
f 257 259 258
f 269 270 271
f 257 260 259
f 269 271 272
f 257 261 260
f 269 272 273
f 257 262 261
f 269 273 274
f 257 263 262
f 269 274 275
f 257 264 263
f 269 275 276
f 257 265 264
f 269 276 277
f 257 266 265
f 269 277 278
f 257 267 266
f 269 278 279
f 257 268 267
f 269 279 280
o FrontSightBase
v -0.012500 0.126500 0.547500
v 0.012500 0.126500 0.547500
v 0.012500 0.221500 0.547500
v -0.012500 0.221500 0.547500
v -0.012500 0.126500 0.572500
v 0.012500 0.126500 0.572500
v 0.012500 0.221500 0.572500
v -0.012500 0.221500 0.572500
f 281 283 282
f 281 284 283
f 285 286 287
f 285 287 288
f 281 285 288
f 281 288 284
f 282 283 287
f 282 287 286
f 284 288 287
f 284 287 283
f 281 282 286
f 281 286 285
o FrontSightPost
v -0.006000 0.211500 0.554000
v 0.006000 0.211500 0.554000
v 0.006000 0.236500 0.554000
v -0.006000 0.236500 0.554000
v -0.006000 0.211500 0.566000
v 0.006000 0.211500 0.566000
v 0.006000 0.236500 0.566000
v -0.006000 0.236500 0.566000
f 289 291 290
f 289 292 291
f 293 294 295
f 293 295 296
f 289 293 296
f 289 296 292
f 290 291 295
f 290 295 294
f 292 296 295
f 292 295 291
f 289 290 294
f 289 294 293
o RearSightLeft
v -0.024000 0.187500 -0.074000
v -0.012000 0.187500 -0.074000
v -0.012000 0.222500 -0.074000
v -0.024000 0.222500 -0.074000
v -0.024000 0.187500 -0.056000
v -0.012000 0.187500 -0.056000
v -0.012000 0.222500 -0.056000
v -0.024000 0.222500 -0.056000
f 297 299 298
f 297 300 299
f 301 302 303
f 301 303 304
f 297 301 304
f 297 304 300
f 298 299 303
f 298 303 302
f 300 304 303
f 300 303 299
f 297 298 302
f 297 302 301
o RearSightRight
v 0.012000 0.187500 -0.074000
v 0.024000 0.187500 -0.074000
v 0.024000 0.222500 -0.074000
v 0.012000 0.222500 -0.074000
v 0.012000 0.187500 -0.056000
v 0.024000 0.187500 -0.056000
v 0.024000 0.222500 -0.056000
v 0.012000 0.222500 -0.056000
f 305 307 306
f 305 308 307
f 309 310 311
f 309 311 312
f 305 309 312
f 305 312 308
f 306 307 311
f 306 311 310
f 308 312 311
f 308 311 307
f 305 306 310
f 305 310 309
o HandguardRib0
v -0.039500 0.059500 0.225500
v 0.039500 0.059500 0.225500
v 0.039500 0.140500 0.225500
v -0.039500 0.140500 0.225500
v -0.039500 0.059500 0.234500
v 0.039500 0.059500 0.234500
v 0.039500 0.140500 0.234500
v -0.039500 0.140500 0.234500
f 313 315 314
f 313 316 315
f 317 318 319
f 317 319 320
f 313 317 320
f 313 320 316
f 314 315 319
f 314 319 318
f 316 320 319
f 316 319 315
f 313 314 318
f 313 318 317
o HandguardRib1
v -0.039500 0.059500 0.255500
v 0.039500 0.059500 0.255500
v 0.039500 0.140500 0.255500
v -0.039500 0.140500 0.255500
v -0.039500 0.059500 0.264500
v 0.039500 0.059500 0.264500
v 0.039500 0.140500 0.264500
v -0.039500 0.140500 0.264500
f 321 323 322
f 321 324 323
f 325 326 327
f 325 327 328
f 321 325 328
f 321 328 324
f 322 323 327
f 322 327 326
f 324 328 327
f 324 327 323
f 321 322 326
f 321 326 325
o HandguardRib2
v -0.039500 0.059500 0.285500
v 0.039500 0.059500 0.285500
v 0.039500 0.140500 0.285500
v -0.039500 0.140500 0.285500
v -0.039500 0.059500 0.294500
v 0.039500 0.059500 0.294500
v 0.039500 0.140500 0.294500
v -0.039500 0.140500 0.294500
f 329 331 330
f 329 332 331
f 333 334 335
f 333 335 336
f 329 333 336
f 329 336 332
f 330 331 335
f 330 335 334
f 332 336 335
f 332 335 331
f 329 330 334
f 329 334 333
o HandguardRib3
v -0.039500 0.059500 0.315500
v 0.039500 0.059500 0.315500
v 0.039500 0.140500 0.315500
v -0.039500 0.140500 0.315500
v -0.039500 0.059500 0.324500
v 0.039500 0.059500 0.324500
v 0.039500 0.140500 0.324500
v -0.039500 0.140500 0.324500
f 337 339 338
f 337 340 339
f 341 342 343
f 341 343 344
f 337 341 344
f 337 344 340
f 338 339 343
f 338 343 342
f 340 344 343
f 340 343 339
f 337 338 342
f 337 342 341
o HandguardRib4
v -0.039500 0.059500 0.345500
v 0.039500 0.059500 0.345500
v 0.039500 0.140500 0.345500
v -0.039500 0.140500 0.345500
v -0.039500 0.059500 0.354500
v 0.039500 0.059500 0.354500
v 0.039500 0.140500 0.354500
v -0.039500 0.140500 0.354500
f 345 347 346
f 345 348 347
f 349 350 351
f 349 351 352
f 345 349 352
f 345 352 348
f 346 347 351
f 346 351 350
f 348 352 351
f 348 351 347
f 345 346 350
f 345 350 349
o HandguardRib5
v -0.039500 0.059500 0.375500
v 0.039500 0.059500 0.375500
v 0.039500 0.140500 0.375500
v -0.039500 0.140500 0.375500
v -0.039500 0.059500 0.384500
v 0.039500 0.059500 0.384500
v 0.039500 0.140500 0.384500
v -0.039500 0.140500 0.384500
f 353 355 354
f 353 356 355
f 357 358 359
f 357 359 360
f 353 357 360
f 353 360 356
f 354 355 359
f 354 359 358
f 356 360 359
f 356 359 355
f 353 354 358
f 353 358 357
